<svg width="1025" height="1025" viewBox="0 0 1025 1025" fill="none" xmlns="http://www.w3.org/2000/svg">
<path d="M254.88 499.937C243.961 495.885 233.129 491.85 222.351 487.835C202.05 480.273 181.94 472.782 161.798 465.379C156.835 463.554 153.416 460.908 150.83 456.054C129.197 415.444 107.358 374.942 85.3501 334.533C82.2307 328.806 82.1193 324.003 84.3864 317.776C93.0875 293.877 100.246 269.485 107.405 245.093C110.637 234.08 113.869 223.068 117.243 212.1C122.39 195.369 127.362 178.58 132.058 161.718C133.4 156.896 135.828 153.36 139.637 150.298C144.045 146.754 148.465 143.223 152.885 139.692C168.036 127.586 183.189 115.479 197.903 102.861C205.311 96.5082 213.855 95.2679 222.44 94.0215C223.879 93.8126 225.319 93.6036 226.754 93.3704C271.144 86.1584 315.56 79.0869 360.039 72.4562C368.422 71.2065 371.009 67.4071 371.122 59.5097C371.409 39.2733 371.961 38.954 389.117 49.4922C437.929 79.4768 486.688 109.549 535.289 139.876C541.592 143.809 545.106 143.69 549.746 137.375C555.714 129.253 561.996 121.363 568.278 113.472C573.698 106.665 579.118 99.8574 584.337 92.9C588.458 87.4061 593.509 84.8481 599.891 83.7269C603.182 83.1487 606.474 82.5752 609.766 82.0016C623.711 79.5723 637.658 77.1427 651.533 74.3545C660.446 72.5634 665.482 74.5092 667.699 84.2457C669.006 89.983 670.906 95.5837 672.807 101.185C674.63 106.558 676.453 111.932 677.753 117.429C679.773 125.967 683.658 128.27 692.122 126.763C720.725 121.672 749.409 117.017 778.123 112.587C779.354 112.397 780.679 112.021 782.032 111.637C786.372 110.406 791.002 109.092 793.732 113.574C796.052 117.382 793.299 121.084 790.713 124.564C789.914 125.638 789.131 126.691 788.518 127.72C781.951 138.74 775.194 149.694 767.734 160.118C763.283 166.337 764.308 170.042 769.622 175.049C778.142 183.076 786.488 191.305 794.832 199.533C810.367 214.85 825.896 230.163 842.537 244.161C857.474 256.725 861.72 271.166 862.654 288.81C863.23 299.68 861.946 309.599 857 319.59C846.453 340.898 836.731 362.624 827.071 384.356C824.017 391.226 820.468 393.419 813.358 389.856C807.565 386.952 801.546 384.495 795.531 382.039C793.717 381.298 791.903 380.558 790.096 379.805C785.645 377.951 784.207 375.178 785.291 370.212C789.022 353.126 792.403 335.962 795.73 318.792C796.491 314.861 798.584 311.962 801.131 309.142C804.126 305.828 807.08 302.477 810.566 298.522C812.172 296.7 813.891 294.749 815.78 292.615C809.404 290.927 803.432 288.118 797.57 285.36C783.817 278.889 770.673 272.704 754.353 281.974C753.008 282.739 751.528 283.269 750.049 283.799C748.562 284.332 747.075 284.865 745.723 285.637C725.003 297.463 707.03 291.93 690.373 277.211C689.676 276.595 688.768 276.218 687.607 275.737C686.98 275.477 686.28 275.186 685.499 274.811C680.307 286.031 677.684 297.566 675.385 309.01C674.613 312.853 677.974 315.202 681.132 317.409C682.103 318.088 683.055 318.753 683.862 319.445C712.817 344.254 741.839 368.984 770.862 393.714C780.92 402.284 790.978 410.854 801.034 419.428C803.848 421.828 806.665 424.224 809.483 426.621C818.828 434.57 828.174 442.521 837.417 450.589C849.196 460.872 846.494 479.013 832.46 484.817C824.582 488.075 816.698 491.323 808.815 494.57C788.921 502.766 769.026 510.962 749.204 519.328C742.559 522.132 736.37 522.872 729.239 521.014C718.924 518.328 708.544 515.885 698.165 513.443C688.766 511.231 679.366 509.019 670.014 506.626C664.026 505.093 658.675 505.404 654.033 509.132C635.722 523.836 618.573 523.534 599.558 508.92C588.805 500.656 578.767 492.892 571.079 481.357C532.853 423.998 494.258 366.885 455.663 309.772C447.279 297.367 438.896 284.961 430.516 272.553C430.099 271.934 429.702 271.289 429.303 270.64C427.592 267.859 425.833 264.999 422.162 263.791C417.135 266.348 413.95 270.758 410.797 275.123C409.956 276.288 409.117 277.45 408.246 278.573C404.691 283.154 400.645 284.514 395.202 283.662C387.21 282.411 379.208 281.21 371.207 280.008C354.186 277.453 337.167 274.898 320.232 271.864C312.696 270.513 306.449 271.218 301.105 276.203C289.822 286.727 276.605 286.512 262.493 284.945C260.027 284.672 257.554 284.338 255.076 284.003C246.576 282.856 238.015 281.7 229.459 282.934C228.515 287.684 231.068 289.806 233.402 291.746C233.877 292.14 234.342 292.527 234.767 292.927C242.964 300.634 251.226 308.271 259.489 315.908C266.63 322.509 273.771 329.109 280.87 335.755C284.55 339.201 288.766 340.574 293.62 340.799C302.558 341.214 311.496 341.643 320.433 342.073C339.301 342.979 358.168 343.885 377.042 344.654C382.865 344.892 387.752 346.762 392.945 349.314C421.516 363.352 443.332 384.531 461.044 410.67C466.382 418.548 472.372 425.983 478.363 433.42C481.614 437.456 484.866 441.493 488.015 445.601C494.959 454.662 493.727 458.772 483.064 461.458C457.909 467.792 432.748 474.104 407.588 480.415C368.755 490.155 329.923 499.896 291.113 509.723C286.874 510.796 283.235 510.554 279.314 509.023C273.004 506.559 266.64 504.235 259.921 501.781C258.264 501.175 256.585 500.562 254.88 499.937Z" fill="#242424"/>
<path d="M623.902 581.283C628.967 582.507 633.947 583.737 638.874 584.954C649.152 587.493 659.198 589.975 669.295 592.228C674.475 593.384 678.46 595.654 681.892 599.615C682.238 600.015 682.584 600.414 682.93 600.814C695.082 614.838 707.237 628.866 719.729 642.584C723.773 647.025 725.002 651.105 723.136 656.902C718.156 672.367 713.474 687.936 709.084 703.578C707.688 708.552 704.903 711.516 700.627 714.074C642.105 749.083 583.589 784.105 525.271 819.453C516.824 824.573 511.112 824.314 504.356 816.527C485.598 794.904 466.429 773.637 447.262 752.37C443.596 748.302 439.929 744.234 436.265 740.163C432.721 736.225 430.955 732.107 431.038 726.684C431.299 709.477 431.308 692.261 431.039 675.053C430.951 669.384 432.597 664.849 436.03 660.43C460.984 628.31 485.929 596.182 510.546 563.804C515.525 557.255 521.155 555.931 528.531 557.766C560.055 565.608 591.601 573.357 623.902 581.283Z" fill="#242424"/>
<path d="M743.433 744.833C748.491 740.796 752.97 741.287 757.979 743.674C778.595 753.496 799.302 763.13 820.048 772.675C824.047 774.515 826.21 776.96 827.407 781.438C835.716 812.522 844.357 843.517 853.01 874.508C855.054 881.828 853.604 887.769 848.198 893.315C820.899 921.325 793.677 949.413 766.715 977.747C762.165 982.529 757.701 982.132 752.33 980.745C743.48 978.46 734.609 976.245 725.739 974.031C707.027 969.36 688.317 964.689 669.797 959.353C654.534 954.956 639.888 953.589 624.938 959.272C616.254 962.573 612.048 959.557 609.351 950.686C601.076 923.475 592.309 896.404 583.103 869.494C580.097 860.708 582.487 855.674 589.787 850.679C628.381 824.275 666.859 797.703 705.589 770.958C718.173 762.268 730.784 753.56 743.433 744.833Z" fill="#242424"/>
<path d="M872.438 551.138C874.261 575.992 875.988 599.975 877.673 623.961C878.078 629.734 878.461 635.508 878.845 641.282C879.516 651.398 880.187 661.514 880.978 671.621C881.499 678.279 881.204 684.585 878.266 690.814C871.595 704.954 865.117 719.191 858.894 733.533C855.456 741.455 850.572 742.098 844.165 737.444C835.423 731.094 826.694 724.726 817.965 718.359C804.962 708.872 791.958 699.387 778.912 689.96C774.597 686.842 773.533 682.693 773.306 677.768C772.512 660.6 771.636 643.435 770.547 626.284C770.285 622.149 771.775 619.097 774.23 616.069C792.412 593.642 810.571 571.197 828.731 548.752C837.921 537.393 847.111 526.034 856.304 514.677C856.356 514.612 856.409 514.547 856.461 514.482C859.009 511.332 861.752 507.94 866.386 509.691C870.062 511.08 870.133 514.38 870.202 517.582C870.215 518.204 870.228 518.823 870.268 519.423C870.947 529.705 871.638 539.986 872.438 551.138Z" fill="#242424"/>
<path fill-rule="evenodd" clip-rule="evenodd" d="M222.351 487.835C202.05 480.273 181.94 472.782 161.798 465.379C156.835 463.554 153.416 460.908 150.83 456.054C129.197 415.444 107.358 374.942 85.3501 334.533C82.2307 328.806 82.1193 324.003 84.3864 317.776C93.0875 293.877 100.246 269.485 107.405 245.093C110.637 234.08 113.869 223.068 117.243 212.1C122.39 195.369 127.362 178.58 132.058 161.718C133.4 156.896 135.828 153.36 139.637 150.298C144.045 146.754 148.465 143.223 152.885 139.692C168.036 127.586 183.189 115.479 197.903 102.861C205.311 96.5082 213.855 95.2679 222.44 94.0215C223.879 93.8126 225.319 93.6036 226.754 93.3704C271.144 86.1584 315.56 79.0869 360.039 72.4562C368.422 71.2065 371.009 67.4071 371.122 59.5097C371.409 39.2733 371.961 38.954 389.117 49.4922C437.929 79.4768 486.688 109.549 535.289 139.876C541.592 143.809 545.106 143.69 549.746 137.375C555.714 129.253 561.996 121.363 568.278 113.472C573.698 106.665 579.118 99.8574 584.337 92.9C588.458 87.4061 593.509 84.8481 599.891 83.7269C603.182 83.1487 606.474 82.5752 609.766 82.0016C623.711 79.5723 637.658 77.1427 651.533 74.3545C660.446 72.5634 665.482 74.5092 667.699 84.2457C669.006 89.983 670.906 95.5837 672.807 101.185C674.63 106.558 676.453 111.932 677.753 117.429C679.773 125.967 683.658 128.27 692.122 126.763C720.725 121.672 749.409 117.017 778.123 112.587C779.354 112.397 780.679 112.021 782.032 111.637C786.372 110.406 791.002 109.092 793.732 113.574C796.052 117.382 793.299 121.084 790.713 124.564C789.914 125.638 789.131 126.691 788.518 127.72C781.951 138.74 775.194 149.694 767.734 160.118C763.283 166.337 764.308 170.042 769.622 175.049C778.142 183.076 786.488 191.305 794.832 199.533C810.367 214.85 825.896 230.163 842.537 244.161C857.474 256.725 861.72 271.166 862.654 288.81C863.23 299.68 861.946 309.599 857 319.59C846.453 340.898 836.731 362.624 827.071 384.356C824.017 391.226 820.468 393.419 813.358 389.856C807.565 386.952 801.546 384.495 795.531 382.039C793.717 381.298 791.903 380.558 790.096 379.805C785.645 377.951 784.207 375.178 785.291 370.212C789.022 353.126 792.403 335.962 795.73 318.792C796.491 314.861 798.584 311.962 801.131 309.142C804.126 305.828 807.08 302.477 810.566 298.522C812.172 296.7 813.891 294.749 815.78 292.615C809.404 290.927 803.432 288.118 797.57 285.36C783.817 278.889 770.673 272.704 754.353 281.974C753.008 282.739 751.528 283.269 750.049 283.799C748.562 284.332 747.075 284.865 745.723 285.637C725.003 297.463 707.03 291.93 690.373 277.211C689.676 276.595 688.768 276.218 687.607 275.737C686.98 275.477 686.28 275.186 685.499 274.811C680.307 286.031 677.684 297.566 675.385 309.01C674.613 312.853 677.974 315.202 681.132 317.409C682.103 318.088 683.055 318.753 683.862 319.445C712.817 344.254 741.839 368.984 770.862 393.714C780.92 402.284 790.978 410.854 801.034 419.428C803.848 421.828 806.665 424.224 809.483 426.621C818.828 434.57 828.174 442.521 837.417 450.589C849.196 460.872 846.494 479.013 832.46 484.817C824.582 488.075 816.698 491.323 808.815 494.57C788.921 502.766 769.026 510.962 749.204 519.328C742.559 522.132 736.37 522.872 729.239 521.014C718.924 518.328 708.544 515.885 698.165 513.443C688.766 511.231 679.366 509.019 670.014 506.626C664.026 505.093 658.675 505.404 654.033 509.132C635.722 523.836 618.573 523.534 599.558 508.92C588.805 500.656 578.767 492.892 571.079 481.357C532.853 423.998 494.258 366.885 455.663 309.772C447.279 297.367 438.896 284.961 430.516 272.553C430.099 271.934 429.702 271.289 429.303 270.64C427.592 267.859 425.833 264.999 422.162 263.791C417.135 266.348 413.95 270.758 410.797 275.123C409.956 276.288 409.117 277.45 408.246 278.573C404.691 283.154 400.645 284.514 395.202 283.662C387.21 282.411 379.208 281.21 371.207 280.008C354.186 277.453 337.167 274.898 320.232 271.864C312.696 270.513 306.449 271.218 301.105 276.203C289.822 286.727 276.605 286.512 262.493 284.945C260.027 284.672 257.554 284.338 255.076 284.003C246.576 282.856 238.015 281.7 229.459 282.934C228.515 287.684 231.068 289.806 233.402 291.746C233.877 292.14 234.342 292.527 234.767 292.927C242.964 300.634 251.226 308.271 259.489 315.908C266.63 322.509 273.771 329.109 280.87 335.755C284.55 339.201 288.766 340.574 293.62 340.799C302.558 341.214 311.496 341.643 320.433 342.073C339.301 342.979 358.168 343.885 377.042 344.654C382.865 344.892 387.752 346.762 392.945 349.314C421.516 363.352 443.332 384.531 461.044 410.67C466.382 418.548 472.372 425.983 478.363 433.42C481.614 437.456 484.866 441.493 488.015 445.601C494.959 454.662 493.727 458.772 483.064 461.458C457.909 467.792 432.748 474.104 407.588 480.415C368.755 490.155 329.923 499.896 291.113 509.723C286.874 510.796 283.235 510.554 279.314 509.023C273.004 506.559 266.64 504.235 259.921 501.781C258.264 501.175 256.585 500.562 254.88 499.937C243.961 495.885 233.129 491.85 222.351 487.835ZM638.874 584.954C649.152 587.493 659.198 589.975 669.295 592.228C674.475 593.384 678.46 595.654 681.892 599.615L682.93 600.814C695.082 614.838 707.237 628.866 719.729 642.584C723.773 647.025 725.002 651.105 723.136 656.902C718.156 672.367 713.474 687.936 709.084 703.578C707.688 708.552 704.903 711.516 700.627 714.074C642.105 749.083 583.589 784.105 525.271 819.453C516.824 824.573 511.112 824.314 504.356 816.527C485.598 794.904 466.429 773.637 447.262 752.37C443.596 748.302 439.929 744.234 436.265 740.163C432.721 736.225 430.955 732.107 431.038 726.684C431.299 709.477 431.308 692.261 431.039 675.053C430.951 669.384 432.597 664.849 436.03 660.43C460.984 628.31 485.929 596.182 510.546 563.804C515.525 557.255 521.155 555.931 528.531 557.766C560.055 565.608 591.601 573.357 623.902 581.283C628.967 582.507 633.947 583.737 638.874 584.954ZM743.433 744.833C748.491 740.796 752.97 741.287 757.979 743.674C778.595 753.496 799.302 763.13 820.048 772.675C824.047 774.515 826.21 776.96 827.407 781.438C835.716 812.522 844.357 843.517 853.01 874.508C855.054 881.828 853.604 887.769 848.198 893.315C820.899 921.325 793.677 949.413 766.715 977.747C762.165 982.529 757.701 982.132 752.33 980.745C743.48 978.46 734.609 976.245 725.739 974.031C707.027 969.36 688.317 964.689 669.797 959.353C654.534 954.956 639.888 953.589 624.938 959.272C616.254 962.573 612.048 959.557 609.351 950.686C601.076 923.475 592.309 896.404 583.103 869.494C580.097 860.708 582.487 855.674 589.787 850.679C628.381 824.275 666.859 797.703 705.589 770.958C718.173 762.268 730.784 753.56 743.433 744.833ZM872.438 551.138C874.261 575.992 875.988 599.975 877.673 623.961C878.078 629.734 878.461 635.508 878.845 641.282C879.516 651.398 880.187 661.514 880.978 671.621C881.499 678.279 881.204 684.585 878.266 690.814C871.595 704.954 865.117 719.191 858.894 733.533C855.456 741.455 850.572 742.098 844.165 737.444C835.423 731.094 826.694 724.726 817.965 718.359C804.962 708.872 791.958 699.387 778.912 689.96C774.597 686.842 773.533 682.693 773.306 677.768C772.512 660.6 771.636 643.435 770.547 626.284C770.285 622.149 771.775 619.097 774.23 616.069C792.412 593.642 810.571 571.197 828.731 548.752C837.921 537.393 847.111 526.034 856.304 514.677L856.461 514.482C859.009 511.332 861.752 507.94 866.386 509.691C870.062 511.08 870.133 514.38 870.202 517.582C870.215 518.204 870.228 518.823 870.268 519.423C870.947 529.705 871.638 539.986 872.438 551.138Z" fill="#242424"/>
</svg>
