<svg xmlns="http://www.w3.org/2000/svg" width="1024" height="1024" fill="none"
    xmlns:v="https://vecta.io/nano">
    <path d="M0 0H512V720H0V0Z" fill="#242424" />
    <g fill="#77b1dd">
        <path
            d="M0 645.447h512V720H0v-74.553zM48.444 66.25l-5.391-2.001a1.08 1.08 0 0 1-.635-.54l-3.792-7.038c-.181-.332-.187-.61-.056-.971l1.903-6.12.858-2.918A1.23 1.23 0 0 1 41.77 46l3.374-2.747c.501-.43 1.091-.456 1.671-.55l7.719-1.211c.486-.072.635-.292.642-.75.017-1.172.049-1.19 1.042-.58l8.466 5.235c.365.228.569.221.837-.145l2.003-2.576c.239-.318.531-.466.901-.531l2.991-.543c.516-.104.808.009.936.573.148.651.428 1.272.582 1.922.117.495.342.628.832.541l4.981-.821c.3-.046.697-.283.904.057.176.289-.151.567-.302.819l-1.204 1.876c-.258.36-.198.575.109.865l4.223 4.003c.865.728 1.111 1.564 1.165 2.586.033.63-.041 1.204-.328 1.783l-1.733 3.751c-.177.398-.382.525-.794.319-.437-.219-.895-.394-1.347-.582-.258-.107-.341-.268-.278-.556l.605-2.978c.044-.228.165-.396.313-.559l.848-.957c-1.236-.327-2.21-1.382-3.558-.616-.156.089-.344.123-.5.212-1.2.685-2.241.364-3.206-.488-.062-.055-.154-.077-.282-.139-.301.65-.453 1.318-.586 1.981-.059.291.292.434.491.604l6.786 5.791 2.107 1.805c.682.595.526 1.646-.287 1.982l-4.822 1.999c-.385.162-.743.205-1.156.098l-3.43-.833c-.347-.089-.657-.071-.925.145-1.06.852-2.054.834-3.155-.012-.623-.479-1.204-.928-1.649-1.596l-8.141-12.093c-.128-.189-.222-.421-.484-.507-.369.188-.566.547-.806.856a.72.72 0 0 1-.755.295l-4.342-.683c-.437-.078-.798-.037-1.108.251-.653.61-1.419.597-2.236.506-.633-.07-1.273-.209-1.913-.116-.066.331.162.442.308.579l2.67 2.48c.213.2.457.279.738.292l4.831.223c.337.014.62.122.921.27 1.655.813 2.918 2.04 3.944 3.553.477.704 1.044 1.347 1.562 2.023.402.525.331.763-.287.918l-11.117 2.795c-.245.062-.456.048-.683-.041l-1.415-.526zm21.372 4.711l2.629.634a1.28 1.28 0 0 1 .729.428l2.191 2.489c.234.257.305.493.197.829l-.814 2.703c-.081.288-.242.46-.49.608l-10.156 6.103c-.489.296-.82.281-1.211-.169l-3.943-4.423a1.07 1.07 0 0 1-.303-.781v-2.99c-.005-.328.09-.591.289-.847l4.316-5.596c.288-.379.614-.456 1.042-.35l5.523 1.362zm6.923 9.472c.293-.234.552-.205.842-.067l3.595 1.68c.232.107.357.248.426.507l1.483 5.39a1.03 1.03 0 0 1-.279 1.089l-4.719 4.89c-.264.277-.522.254-.833.174l-4.78-1.239c-.884-.255-1.732-.334-2.598-.005-.503.191-.746.016-.903-.497l-1.52-4.702c-.174-.509-.036-.8.387-1.09l8.898-6.13zm7.472-11.218l.303 4.218.191 2.76c.03.386.013.751-.157 1.112l-1.122 2.474c-.199.459-.482.496-.853.227l-3.779-2.75c-.25-.18-.311-.421-.325-.706l-.16-2.982c-.015-.24.071-.416.213-.592l4.753-5.872c.15-.185.31-.392.584-.289.254.096.211.35.225.564l.126 1.837zm234.544 10.242c.832-.8 1.344-3.2 1.344-5.824v-6.144c-4.64-4-1.472-13.504-10.752-13.504-2.272.064-4.576 1.504-4.576 3.84 0 7.968 13.088 5.056 13.088 14.976 0 4.48-3.936 7.168-8.736 7.168-4.256 0-7.168-1.76-8.128-4.8l2.592-3.296c0 4.384 2.432 7.456 5.984 7.456 2.848 0 5.728-2.304 5.728-6.112 0-7.424-12.992-5.504-12.992-14.432 0-3.392 3.296-5.44 7.04-5.44 9.44 0 6.88 8.992 10.752 13.184v-6.88c0-2.624-.512-5.024-1.344-5.824h5.088c-.832.8-1.344 3.2-1.344 5.824v8.448c.896.32 2.016.512 3.36.512 6.912 0 7.904-4 7.904-8.416v-.544c0-2.624-.512-5.024-1.344-5.824h5.088c-.832.8-1.344 3.2-1.344 5.824v13.984c0 2.624.512 5.024 1.344 5.824h-5.088c.832-.8 1.344-3.2 1.344-5.824v-6.496c-1.6 1.408-4.128 2.112-7.904 2.112-1.312 0-2.432-.16-3.36-.448v4.832c0 2.624.512 5.024 1.344 5.824h-5.088zm20.685 0c.832-.8 1.344-3.2 1.344-5.824V59.649c0-2.624-.512-5.024-1.344-5.824h15.808v2.496c-.8-.832-1.952-1.856-5.824-1.856h-3.552c-2.624 0-2.688 2.56-2.688 5.184v6.592c.704-1.248 1.984-1.728 3.904-1.728h1.056c2.624 0 5.024-.864 5.824-1.696v4.032c-.8-.832-3.2-1.696-5.824-1.696h-1.056c-2.624 0-3.904.992-3.904 4.224v4.256c0 2.624.064 5.184 2.72 5.184h3.296c4.224 0 5.952-1.888 6.688-2.72l-.768 2.72-.192.64H339.44zm18.063 0c.832-.8 1.344-3.2 1.344-5.824V59.649c0-2.624-.512-5.024-1.344-5.824h3.488c1.504 0 2.208-.48 3.904-.48 5.024 0 9.184 2.784 9.184 8.544 0 2.976-1.376 5.376-3.424 6.752.128.256.224.544.32.832 1.856 6.08 3.168 9.856 7.648 9.856 3.616 0 4.192-2.304 4.192-6.784v-1.632l-5.888-11.488c-1.344-2.656-2.912-4.896-4.032-5.6h5.344c-.832.8.192 3.072 1.472 5.6l5.184 10.176 5.12-10.176c1.312-2.688 2.176-4.832 1.376-5.6h3.424c-.992.704-2.56 2.72-4.064 5.536l-5.536 11.008v2.176c0 4.768-1.056 7.264-6.592 7.424-6.4 0-8.096-4.224-10.24-10.496-.48-1.44-1.76-4.224-3.84-4.224-1.792 0-3.296 1.664-3.296 7.2v1.184c0 2.624.512 5.024 1.344 5.824h-5.088zm3.744-11.36c0-1.664 1.312-3.648 3.552-3.648 2.144 0 3.936.928 5.184 2.88 1.024-1.504 1.472-3.776 1.12-6.4-.736-5.504-4.128-6.944-6.56-6.944-3.104 0-3.296 3.04-3.296 5.632v8.48zm34.287 11.36c.832-.8 1.344-3.2 1.344-5.824V59.649c0-2.624-.512-5.024-1.344-5.824h5.088c-.832.8-1.344 3.2-1.344 5.824v13.984c0 2.624.512 5.024 1.344 5.824h-5.088zm7.448-9.6l4.864-13.504c-.704-1.184-1.408-2.08-1.888-2.528h3.968l5.888 16.128c1.6 4.768 3.168 9.344 5.056 9.344 2.624 0 2.624-3.424 2.624-9.856V55.969c-.832-1.056-1.664-1.856-2.336-2.144h5.568c-.448.896.48 3.008 2.016 5.6l9.152 15.264v-15.04c0-2.624-.512-5.024-1.344-5.824h3.328c-.832.8-1.344 3.2-1.344 5.824v19.808h-.64l-12.032-20.032c-.576-.928-1.152-1.824-1.728-2.624v12.64.032.096c0 7.232-.064 10.368-3.36 10.368-4.128 0-5.376-3.264-7.68-10.24l-.448-1.248c.608 6.848-1.28 11.104-6.272 11.104s-5.344-4.352-3.392-9.696zm.704-.064c-1.952 5.376-1.728 9.12 2.688 9.12 2.24 0 3.648-1.824 4.064-5.088.16-2.496-1.088-3.584-2.944-3.712l2.912-1.472 1.952-.96-3.04-8.384a49.91 49.91 0 0 0-1.056-2.24l-4.576 12.736zm45.906 10.176c-4.256 0-7.168-1.76-8.128-4.8l2.592-3.296c0 4.384 2.432 7.456 5.984 7.456 2.848 0 5.728-2.304 5.728-6.112 0-7.424-12.992-5.504-12.992-14.432 0-3.392 3.296-5.44 7.04-5.44 3.808 0 5.088 2.048 7.36 2.048l-2.24 2.816c-.32-2.496-1.952-4.224-4.96-4.224-2.304 0-4.736 1.44-4.736 3.84 0 7.968 13.088 5.056 13.088 14.976 0 4.48-4 7.168-8.736 7.168zM26.006 443.122h180.88v1H26.006v-1z" />
        <path fill="#ffff" d="M512 0h512v720H512V0z" />
    </g>
    <path d="M512 645.447h512V720H512v-74.553z" fill="#242424" />
    <g fill="#fff">
        <use href="#B" />
        <use href="#C" />
        <path
            d="M660.361 692.542c-1.24 0-2.318-.275-3.234-.823s-1.612-1.322-2.1-2.31-.726-2.13-.726-3.414c0-1.276.24-2.401.72-3.378s1.178-1.734 2.082-2.273c.908-.545 1.978-.816 3.21-.816 1.216 0 2.264.264 3.144.792s1.554 1.263 2.022 2.219.702 2.068.702 3.336v.403.396h-9.93v-1.758h8.592l-1.152.972c-.004-.928-.138-1.712-.402-2.352s-.646-1.13-1.146-1.458-1.106-.492-1.818-.492c-.684 0-1.282.151-1.794.456s-.904.76-1.188 1.367-.426 1.357-.426 2.245v.66c0 .924.142 1.697.426 2.321s.688 1.085 1.212 1.393 1.15.456 1.878.456c.516 0 .972-.077 1.368-.229a2.83 2.83 0 0 0 1.02-.677 3.49 3.49 0 0 0 .69-1.104l2.46.245c-.272.808-.674 1.498-1.206 2.07a5.26 5.26 0 0 1-1.92 1.309c-.748.3-1.572.444-2.484.444zm8.728-.318V679.84h2.472l.042 3.071.132.217v9.096h-2.646zm2.076-8.922c.204-.756.488-1.419.852-1.987s.822-1.02 1.374-1.344 1.2-.485 1.944-.485l.384.018.39.048v2.484l-.444-.024-.402-.012c-.6 0-1.166.142-1.698.426s-.958.696-1.29 1.248-.512 1.216-.54 1.992h-.492l-.078-2.364zm7.446 11.64h.63.63c.376 0 .682-.046.918-.138s.436-.24.6-.456.322-.524.474-.924l.828-2.25.264 2.514-5.652-13.848h2.85l2.568 7.086.624 1.92.522 1.83h-.648l.522-1.848.618-1.902 2.448-7.086h2.736l-5.664 14.694c-.248.643-.532 1.151-.852 1.523a2.68 2.68 0 0 1-1.146.81c-.448.169-1.002.253-1.662.253h-.804-.804v-2.178z" />
        <use href="#D" />
        <path
            d="M708.538 692.224c-.552 0-1.008-.091-1.368-.271a1.76 1.76 0 0 1-.804-.821c-.176-.368-.264-.83-.264-1.387l-.3-.24v-6.167c0-.404-.094-.739-.282-1.002s-.466-.468-.846-.6-.868-.205-1.464-.205c-.56 0-1.024.066-1.392.198a1.66 1.66 0 0 0-.846.654c-.2.3-.324.705-.372 1.213l-2.586-.031c.076-.916.322-1.674.738-2.273.416-.604 1.006-1.057 1.77-1.357s1.716-.449 2.844-.449c1.088 0 2.008.146 2.76.438s1.33.732 1.722 1.331.594 1.358.594 2.274v5.737c0 .26.032.466.096.617a.64.64 0 0 0 .324.325c.152.064.358.096.618.096h.174.174v1.92h-.648-.642zm-6.828.299c-.852 0-1.594-.141-2.226-.425s-1.122-.698-1.47-1.242-.516-1.198-.516-1.95c0-.68.142-1.28.426-1.8s.74-.956 1.356-1.296 1.41-.578 2.382-.703l3.456-.438c.2-.023.362-.071.486-.143s.216-.179.276-.307.098-.289.102-.485l.972 1.2c0 .264-.036.485-.108.665s-.174.325-.318.432-.33.175-.558.211l-3.6.534c-.532.08-.964.21-1.296.39s-.576.402-.732.665-.228.575-.228.931c0 .384.09.715.27.996.18.276.438.486.774.63s.728.216 1.176.216c.62 0 1.196-.129 1.728-.385s.954-.598 1.266-1.026.474-.901.474-1.409h.756v1.638c-.192.604-.512 1.142-.96 1.614s-.998.834-1.662 1.097-1.406.39-2.226.39z" />
        <use href="#E" />
        <path
            d="M731.039 692.565c-1.08 0-2-.154-2.76-.461s-1.35-.767-1.782-1.375-.698-1.371-.798-2.279l2.496-.114c.068.528.22.96.456 1.296s.566.584.978.743.92.241 1.524.241c.62 0 1.138-.074 1.554-.223s.726-.355.93-.623a1.56 1.56 0 0 0 .312-.966c0-.34-.084-.622-.252-.846s-.44-.42-.816-.576-.88-.294-1.524-.414l-1.368-.24c-.884-.156-1.62-.381-2.208-.673s-1.028-.677-1.332-1.146-.45-1.044-.45-1.716c0-.755.184-1.408.552-1.956s.922-.975 1.65-1.271 1.612-.445 2.652-.445c.976 0 1.83.14 2.562.421.736.276 1.33.696 1.782 1.26s.74 1.259.864 2.1l-2.538.12c-.08-.448-.232-.818-.456-1.11s-.528-.517-.912-.661-.85-.221-1.398-.221c-.5 0-.926.057-1.278.174s-.614.279-.798.503-.276.506-.276.846.088.611.264.823.436.375.768.503.766.239 1.302.343l1.326.24c.94.172 1.726.401 2.358.69s1.132.672 1.488 1.164.534 1.108.534 1.848c0 .836-.218 1.554-.654 2.154s-1.054 1.058-1.866 1.373-1.774.474-2.886.474zm22.357.091c-1.656 0-3.106-.379-4.35-1.135s-2.196-1.817-2.868-3.173-1.002-2.912-1.002-4.656c0-1.752.338-3.298 1.014-4.638s1.638-2.388 2.874-3.132 2.676-1.117 4.308-1.117c1.288 0 2.47.234 3.546.703s1.968 1.132 2.664 1.992 1.144 1.866 1.332 3.018h-2.79c-.176-.712-.482-1.318-.918-1.818s-.968-.885-1.608-1.14-1.352-.384-2.136-.384c-1.136 0-2.116.259-2.94.78-.824.515-1.456 1.261-1.896 2.237s-.654 2.14-.654 3.492c0 1.364.218 2.542.654 3.534s1.066 1.747 1.89 2.275 1.806.792 2.946.792c.892 0 1.68-.163 2.364-.487s1.242-.815 1.674-1.463.714-1.448.846-2.401h2.724c-.18 1.38-.608 2.576-1.284 3.588a6.7 6.7 0 0 1-2.646 2.329c-1.092.54-2.34.804-3.744.804z" />
        <use href="#F" />
        <path
            d="M783.315 692.523c-1.132 0-2.12-.279-2.964-.839s-1.494-1.351-1.95-2.358-.678-2.16-.678-3.456c0-1.261.236-2.368.708-3.324s1.126-1.694 1.962-2.215 1.79-.785 2.862-.785c.788 0 1.508.139 2.16.42.652.276 1.196.667 1.632 1.175s.742 1.091.906 1.759v6.293c-.168.64-.47 1.212-.906 1.716s-.976.901-1.62 1.189-1.348.425-2.112.425zm.426-2.237c.684 0 1.294-.178 1.83-.534s.96-.867 1.26-1.531.456-1.437.456-2.321-.15-1.642-.45-2.262-.708-1.094-1.236-1.41-1.134-.481-1.818-.481c-.696 0-1.298.159-1.806.474s-.9.776-1.176 1.393c-.276.612-.414 1.36-.414 2.243 0 .904.134 1.69.402 2.359s.66 1.176 1.164 1.536 1.1.534 1.788.534zm3.738 1.938l-.06-3.444v-6.361h-.24v-7.284h2.652v17.089h-2.352z" />
        <use href="#D" x="101.555" />
        <use href="#E" x="87.586" />
        <path
            d="M819.261 697.408c-1.056 0-1.968-.132-2.736-.396s-1.378-.676-1.842-1.236-.746-1.268-.858-2.136l2.556-.067c.112.444.296.799.552 1.062.26.269.592.46.996.576s.894.174 1.47.174c.892 0 1.598-.13 2.118-.39a2.27 2.27 0 0 0 1.11-1.146c.22-.5.33-1.135.33-1.907v-2.484h.24v-6.3h-.18l.06-3.318h2.472v11.79c0 1.312-.252 2.398-.756 3.258a4.51 4.51 0 0 1-2.148 1.901c-.932.412-2.06.619-3.384.619zm-.228-4.999c-1.132 0-2.12-.277-2.964-.833s-1.494-1.339-1.95-2.334-.678-2.143-.678-3.427c0-1.247.236-2.346.708-3.294s1.126-1.68 1.962-2.195c.836-.521 1.79-.78 2.862-.78.788 0 1.508.138 2.16.414s1.196.665 1.632 1.17a4.08 4.08 0 0 1 .906 1.745v6.234a4.19 4.19 0 0 1-.906 1.705c-.436.496-.976.886-1.62 1.17s-1.348.425-2.112.425zm.426-2.201c.684 0 1.294-.177 1.83-.528.54-.357.96-.865 1.26-1.524s.456-1.43.456-2.31-.15-1.634-.45-2.25-.708-1.088-1.236-1.404-1.134-.474-1.818-.474c-.696 0-1.298.155-1.806.467s-.9.768-1.176 1.38-.414 1.359-.414 2.239c0 .9.134 1.682.402 2.346s.66 1.168 1.164 1.524 1.1.534 1.788.534z" />
        <use href="#B" x="211.289" />
        <path
            d="M857.069 692.565c-1.2 0-2.246-.25-3.138-.75s-1.582-1.239-2.07-2.208-.732-2.131-.732-3.491c0-1.368.244-2.548.732-3.54s1.192-1.75 2.1-2.274 1.982-.792 3.21-.792c1 0 1.884.176 2.652.528a4.55 4.55 0 0 1 1.878 1.535c.48.672.786 1.483.918 2.431l-2.52.042c-.1-.544-.276-.997-.528-1.356a2.31 2.31 0 0 0-.972-.81c-.396-.18-.862-.271-1.398-.271-.76 0-1.394.172-1.902.516s-.882.847-1.134 1.507-.372 1.458-.372 2.406c0 .936.13 1.734.39 2.394s.642 1.163 1.146 1.511 1.124.523 1.848.523c.564 0 1.046-.103 1.446-.307a2.41 2.41 0 0 0 .96-.899c.244-.396.416-.884.516-1.464l2.514.042c-.136.984-.44 1.829-.912 2.537s-1.092 1.247-1.872 1.627-1.7.563-2.76.563z" />
        <use href="#C" x="224.859" />
        <use href="#F" x="115.898" />
        <use href="#F" x="130.359" />
        <path d="M908.784 692.224v-17.089h2.646v17.089h-2.646z" />
    </g>
    <defs>
        <path id="B"
            d="M630.78 692.614c-1.452 0-2.692-.221-3.72-.661s-1.828-1.099-2.4-1.979-.904-1.979-.996-3.294h2.682c.072.856.29 1.558.654 2.106s.868.946 1.512 1.206 1.436.39 2.364.39c.876 0 1.612-.112 2.208-.336s1.042-.546 1.338-.966.444-.924.444-1.512c0-.492-.108-.912-.324-1.261s-.562-.641-1.038-.881-1.112-.452-1.908-.624l-2.598-.552c-.992-.208-1.838-.492-2.538-.852s-1.242-.841-1.638-1.44-.594-1.349-.594-2.232c0-.984.236-1.846.708-2.586s1.182-1.317 2.118-1.729 2.086-.623 3.438-.623c1.296 0 2.414.198 3.354.594s1.682.98 2.214 1.751.846 1.713.93 2.82h-2.646c-.06-.648-.25-1.191-.57-1.631s-.756-.78-1.32-1.008-1.242-.343-2.034-.343c-.74 0-1.374.1-1.902.3s-.934.484-1.218.864-.42.831-.42 1.362c0 .42.094.779.282 1.075s.506.548.954.768 1.072.407 1.86.576l2.7.57c1.08.228 1.982.56 2.706.996s1.27.976 1.638 1.632.552 1.42.552 2.303c0 .996-.244 1.887-.732 2.671s-1.234 1.395-2.25 1.847-2.286.679-3.81.679z" />
        <path id="C"
            d="M648.768 684.262c0-.54-.086-.994-.258-1.362s-.43-.653-.774-.84-.776-.282-1.296-.282c-.576 0-1.108.121-1.596.365s-.886.631-1.194 1.171-.462 1.228-.462 2.076l-.84-1.62v-1.825h.462c.272-.515.62-.953 1.044-1.313a4.4 4.4 0 0 1 1.464-.828c.556-.188 1.162-.283 1.818-.283.88 0 1.64.164 2.28.492s1.138.801 1.482 1.429.516 1.384.516 2.268v8.514h-2.646v-7.962zm-8.226 7.962v-17.089h2.646v17.089h-2.646z" />
        <path id="D"
            d="M691.87 692.224V679.84h2.646v12.384h-2.646zm0-14.586v-2.503h2.646v2.503h-2.646z" />
        <path id="E"
            d="M712.096 692.224V679.84h2.46l.054 2.514.132.012v9.858h-2.646zm8.226-7.962c0-.54-.086-.994-.258-1.362s-.43-.653-.774-.84-.776-.282-1.296-.282c-.576 0-1.108.121-1.596.365s-.886.631-1.194 1.171-.462 1.228-.462 2.076h-.84v-3.445h.462c.272-.515.62-.953 1.044-1.313a4.4 4.4 0 0 1 1.464-.828c.556-.188 1.162-.283 1.818-.283.88 0 1.64.164 2.28.492s1.138.801 1.482 1.429.516 1.384.516 2.268v8.514h-2.646v-7.962z" />
        <path id="F"
            d="M769.382 692.565c-1.208 0-2.276-.273-3.204-.821s-1.646-1.325-2.154-2.317-.762-2.14-.762-3.432c0-1.28.262-2.409.786-3.389s1.25-1.747 2.178-2.286 1.98-.81 3.156-.81c1.196 0 2.258.266 3.186.797a5.54 5.54 0 0 1 2.172 2.274c.524.984.786 2.122.786 3.414s-.26 2.443-.78 3.439-1.24 1.762-2.172 2.31-1.992.821-3.192.821zm0-2.099c.736 0 1.364-.182 1.884-.547s.92-.888 1.188-1.56.408-1.46.408-2.364-.138-1.689-.414-2.345-.668-1.164-1.188-1.512-1.146-.529-1.878-.529c-.72 0-1.34.175-1.86.523s-.912.852-1.188 1.511-.408 1.44-.408 2.352.136 1.699.408 2.371.666 1.189 1.182 1.553 1.142.547 1.866.547z" />
    </defs>
</svg>